# This file uses centimeters as units for non-parametric coordinates.

mtllib IceDetail.mtl
g default
v -0.527919 -0.075081 0.137299
v -0.032225 -0.075081 0.424360
v 0.362174 -0.075075 0.377591
v -0.546988 0.082241 -0.080343
v -0.002701 0.082249 0.234641
v 0.418022 0.082252 0.184753
v -0.550002 0.069986 -0.206005
v 0.428783 0.069986 -0.206005
v 0.428783 -0.061519 -0.206005
v -0.550002 -0.054676 -0.206005
vt 0.322115 0.713355
vt 0.353648 0.717090
vt 0.281315 0.736980
vt 0.117247 0.583315
vt 0.117247 0.543726
vt 0.125323 0.521730
vt 0.356136 0.754253
vt 0.279209 0.754253
vt 1.497076 1.238090
vt 0.005923 0.997551
vt 0.000000 0.000000
vt 1.000000 0.000000
vt 0.000000 0.000000
vt 1.000000 0.000000
vt 0.999948 1.051340
vt 0.000000 1.000000
vn -0.000007 1.000000 -0.000016
vn 0.005906 0.999043 -0.043347
vn 0.006179 0.998952 -0.045352
vn -0.330865 0.750921 0.571530
vn -0.330865 0.750921 0.571530
vn -0.330865 0.750921 0.571530
vn -0.330865 0.750921 0.571530
vn 0.076298 0.761645 0.643487
vn 0.076298 0.761645 0.643487
vn 0.076298 0.761645 0.643487
vn 0.076298 0.761645 0.643487
vn 0.006449 0.998858 -0.047331
vn 0.006449 0.998858 -0.047331
vn 0.987245 -0.138675 0.078209
vn 0.987245 -0.138675 0.078209
vn 0.987245 -0.138675 0.078209
vn 0.987245 -0.138675 0.078209
vn 0.000000 0.000000 -1.000000
vn 0.000000 0.000000 -1.000000
vn 0.000000 0.000000 -1.000000
vn 0.000000 0.000000 -1.000000
vn -0.998242 -0.026632 0.052958
vn -0.998242 -0.026632 0.052958
vn -0.998242 -0.026632 0.052958
vn -0.998242 -0.026632 0.052958
vn 0.000906 -0.999499 -0.031624
vn 0.000906 -0.999499 -0.031624
vn 0.000906 -0.999499 -0.031624
vn 0.000906 -0.999499 -0.031624
vn 0.000906 -0.999499 -0.031624
s 1
g polySurface2
usemtl lambert21SG
f 5/1/1 6/2/2 4/3/3
s off
f 4/3/4 1/4/5 2/5/6 5/1/7
f 2/5/8 3/6/9 6/2/10 5/1/11
s 1
f 8/7/12 7/8/13 4/3/3 6/2/2
s off
f 3/9/14 9/10/15 8/11/16 6/12/17
f 7/13/18 8/14/19 9/15/20 10/16/21
f 1/4/22 4/3/23 7/13/24 10/16/25
f 2/5/26 1/4/27 10/16/28 9/10/29 3/6/30
